<svg xmlns="http://www.w3.org/2000/svg" xmlns:xlink="http://www.w3.org/1999/xlink" viewBox="0 0 1432.7 469.25">
  <defs>
    <linearGradient id="a" x1="75.36" y1="283.6" x2="75.36" y2="106.44" gradientUnits="userSpaceOnUse">
      <stop offset="0" stop-color="#3cc4fc"/>
      <stop offset="1" stop-color="#996bf9"/>
    </linearGradient>
    <linearGradient id="b" x1="184.21" y1="365.74" x2="184.21" y2="24.3" xlink:href="#a"/>
  </defs>
  <g>
    <polygon points="0 106.44 0 283.6 150.72 195.02 0 106.44" fill="url(#a)"/>
    <path d="M52.21,365.42l.25-66.68,84.55.31q30.92.12,54.15-12.11a84.73,84.73,0,0,0,35.89-35.87q12.64-23.61,12.77-56t-12.6-55.61a88.91,88.91,0,0,0-35.62-35.88q-22.9-12.64-53.82-12.76l-87-.32.24-66.2,87.94.33q38.64.14,71.22,12.58a170.11,170.11,0,0,1,56.88,35.48A159.34,159.34,0,0,1,304.57,127q13.17,31.2,13,68.89-.15,37.22-13.54,68.56a157.83,157.83,0,0,1-37.65,54,172.45,172.45,0,0,1-56.9,35.06q-32.65,12.44-70.83,12.3Z" fill="url(#b)"/>
    <g>
      <path d="M378.53,106.54q-18.13,0-30-12.35t-11.84-30q0-18.15,11.84-30.24t30-12.1q18.15,0,29.74,12.1T419.86,64.2q0,17.65-11.59,30T378.53,106.54ZM339.72,365.93V121h77.12v245Z" fill="#fff"/>
      <path d="M928.56,177.92a117.26,117.26,0,0,0-42.34-45.36q-27-16.64-61.74-16.63A102.1,102.1,0,0,0,779.11,126a95,95,0,0,0-18.65,11.87V121H683.35V469.25h76.11v-120a94.6,94.6,0,0,0,19.65,12.11A106.66,106.66,0,0,0,824.48,371q34.77,0,61.74-16.64A117.26,117.26,0,0,0,928.56,309q15.38-28.73,15.37-65.52T928.56,177.92Zm-69.81,95.26a53.42,53.42,0,0,1-19.4,20.67q-12.36,7.56-29,7.56a53.8,53.8,0,0,1-28.22-7.56,51.06,51.06,0,0,1-19.41-20.67q-6.79-13.1-6.8-29.73,0-17.13,7.05-30.25a51.65,51.65,0,0,1,19.41-20.41q12.35-7.31,28.48-7.31t28.48,7.31a51.7,51.7,0,0,1,19.4,20.41q7.05,13.13,7.06,30.25A61.75,61.75,0,0,1,858.75,273.18Z" fill="#fff"/>
      <path d="M964.53,365.93V0h77.12V365.93Z" fill="#fff"/>
      <path d="M1247.23,121v20.22a89.35,89.35,0,0,0-22.93-15.69q-19.92-9.57-44.61-9.57-33.76,0-60.23,16.63a118.42,118.42,0,0,0-41.83,45.36q-15.39,28.72-15.38,65.53T1077.63,309a118.42,118.42,0,0,0,41.83,45.36Q1145.92,371,1179.69,371q24.69,0,44.86-9.58a87.35,87.35,0,0,0,22.68-15.34v19.87h75.61V121Zm-51.91,180.44a53.81,53.81,0,0,1-28.23-7.56,52.84,52.84,0,0,1-19.66-20.67q-7.07-13.1-7-29.73,0-17.13,7.31-30.25a53.36,53.36,0,0,1,19.65-20.41q12.35-7.31,28.48-7.31t28.48,7.31a49.9,49.9,0,0,1,19.15,20.41q6.81,13.13,6.81,30.25,0,25.2-15.12,41.58T1195.32,301.41Z" fill="#fff"/>
      <path d="M1391.37,106.54q-18.15,0-30-12.35t-11.85-30q0-18.15,11.85-30.24t30-12.1q18.15,0,29.74,12.1T1432.7,64.2q0,17.65-11.59,30T1391.37,106.54Zm-38.81,259.39V121h77.12v245Z" fill="#fff"/>
      <polygon points="662.75 120.97 586.88 120.97 440.46 120.97 440.46 185.48 547.92 185.48 438.95 365.93 661.23 365.93 661.23 301.41 552.93 301.41 662.75 120.97" fill="#fff"/>
    </g>
  </g>
</svg>
